<svg width="4000.0000000000005" height="1600" xmlns="http://www.w3.org/2000/svg" version="1.1" enable-background="new 0 0 1000 1000" xml:space="preserve">
 <metadata>Svg Vector Icons : http://www.onlinewebfonts.com/icon</metadata>

 <g>
  <title>Layer 1</title>
  <g id="svg_5">
   <rect fill="#0c688f" stroke="#000" x="901.35243" y="896.67002" width="2681.03539" height="202.56712" id="svg_4" stroke-width="0"/>
   <g id="svg_1">
    <g transform="translate(0, 511) scale(0.1, -0.1)" id="svg_2">
     <path fill="#0c688f" d="m676.47116,4424.59554c-30.58366,-22.63985 -53.22352,-98.90042 -53.22352,-152.12393c0,-60.77014 562.81884,-1665.41946 1254.72456,-3574.31666c692.30292,-1908.8972 1254.72456,-3483.36005 1254.72456,-3498.45329c0,-7.54662 -600.94912,-22.63985 -1338.53174,-22.63985c-1034.28387,0 -1330.98512,-22.63985 -1307.94808,-91.3538c15.09324,-53.22352 562.81884,-372.96181 1216.99147,-707.39615c1102.60063,-562.81884 1193.95443,-623.58897 1239.63133,-844.02966c60.77014,-334.83153 357.47139,-608.49574 1034.28387,-942.93008c1878.31353,-950.47669 6548.08139,-1984.76057 10791.66392,-2395.45547c692.30292,-68.31675 2258.82196,-144.57732 3483.36005,-167.21717l2228.2383,-45.6769l-144.57732,-159.67055c-243.47773,-266.11759 -319.3411,-471.46504 -319.3411,-859.52009c0,-691.90573 479.01166,-1163.37076 1178.86119,-1163.37076c1057.32092,0 1589.55609,1163.37076 905.19698,1977.21395l-197.80083,227.98731l281.60801,0c205.34745,0 334.83153,-60.77014 502.0487,-227.98731c357.47139,-357.47139 1612.19595,-714.94277 3353.87597,-965.96712c1247.17794,-174.76379 1505.74891,-190.25421 1870.76691,-113.99365c730.03601,152.12393 1391.75526,593.4025 1657.87285,1102.60063l113.99365,205.34745l1483.10906,0l1490.65568,0l-197.80083,-227.98731c-684.35911,-821.3898 -152.12393,-1977.21395 912.7436,-1977.21395c1118.09105,0 1627.68637,1429.88554 753.07305,2114.24465c-235.53392,190.25421 -205.34745,212.89407 410.6949,273.6642c661.71925,75.86337 2205.59845,471.46504 2897.50417,745.12924c813.84319,319.3411 1300.40146,616.04235 1665.41946,1011.64402c258.57097,281.21082 311.79449,388.05505 311.79449,654.17263c0,182.31041 -60.77014,418.24152 -152.12393,555.27222c-441.27857,714.94277 -2182.5614,1460.07201 -4410.7997,1886.25734c-867.0667,167.21717 -927.83684,167.21717 -12046.78567,190.25421l-11172.17235,30.58366l-1414.7923,607.30416l-1414.7923,616.04235l-2928.08783,2912.59741c-2464.16941,2456.6228 -2973.76473,2928.08783 -3232.3357,2996.40459c-326.88772,91.3538 -1878.31353,114.39084 -1961.72352,30.58366zm9110.75403,-9042.43728c258.57097,-266.11759 -22.63985,-783.25952 -319.3411,-593.00531c-182.31041,113.99365 -212.89407,441.27857 -60.77014,593.00531c68.31675,68.31675 152.12393,121.54027 190.25421,121.54027s121.54027,-53.22352 189.85702,-121.54027zm1171.31457,15.09324c53.22352,-60.77014 83.80718,-227.98731 68.31675,-365.018c-22.63985,-220.44069 -45.6769,-251.02435 -251.02435,-251.02435s-227.98731,30.58366 -251.02435,251.02435c-22.63985,266.11759 83.80718,471.46504 251.02435,471.46504c53.62071,0 137.0307,-45.6769 182.7076,-106.44703zm1178.86119,7.54662c273.6642,-205.34745 30.18647,-760.61967 -289.15463,-638.68221c-152.12393,60.77014 -175.16098,631.13559 -23.03704,684.35911c144.97451,60.77014 167.61436,60.77014 312.19168,-45.6769zm1140.73091,53.22352c167.21717,-68.31675 167.21717,-623.58897 0,-692.30292c-319.3411,-121.54027 -562.81884,433.73195 -289.15463,638.68221c160.06774,114.39084 137.0307,114.39084 289.15463,53.62071zm1255.12175,-60.77014c121.54027,-152.12393 76.26056,-502.0487 -75.86337,-600.94912c-205.34745,-129.08689 -372.56462,-7.54662 -372.56462,273.6642c-0.39719,380.50843 250.62716,562.81884 448.42799,327.28491zm1178.464,-15.09324c144.57732,-137.0307 152.12393,-289.15463 45.6769,-494.50208c-152.12393,-273.6642 -532.23517,-129.48408 -532.23517,205.34745c0,167.21717 182.7076,410.6949 304.24787,410.6949c38.13028,0 121.54027,-53.22352 182.31041,-121.54027zm1178.86119,15.09324c53.22352,-60.77014 83.80718,-227.98731 68.31675,-365.018c-22.63985,-220.44069 -45.6769,-251.02435 -251.02435,-251.02435c-205.34745,0 -227.98731,30.58366 -251.02435,251.02435c-22.63985,266.11759 83.80718,471.46504 251.02435,471.46504c53.62071,0 137.0307,-45.6769 182.7076,-106.44703zm1178.86119,7.54662c273.6642,-205.34745 30.18647,-760.61967 -289.15463,-638.68221c-152.12393,60.77014 -175.16098,631.13559 -23.03704,684.35911c144.97451,60.77014 167.61436,60.77014 312.19168,-45.6769zm1140.73091,53.22352c167.21717,-68.31675 167.21717,-623.58897 0,-692.30292c-319.3411,-121.54027 -562.81884,433.73195 -289.15463,638.68221c160.06774,114.39084 137.0307,114.39084 289.15463,53.62071zm1216.99147,-53.22352c273.6642,-205.34745 30.58366,-760.61967 -289.15463,-638.68221c-152.12393,60.77014 -175.16098,631.13559 -23.03704,684.35911c144.97451,60.77014 167.61436,60.77014 312.19168,-45.6769zm1140.73091,53.22352c167.21717,-68.31675 167.21717,-623.58897 0,-692.30292c-319.3411,-121.54027 -562.81884,433.73195 -289.15463,638.68221c159.67055,114.39084 137.0307,114.39084 289.15463,53.62071zm1254.72456,-60.77014c53.22352,-60.77014 83.80718,-227.98731 68.31675,-365.018c-22.63985,-220.44069 -45.6769,-251.02435 -251.02435,-251.02435s-227.98731,30.58366 -251.02435,251.02435c-22.63985,266.11759 83.80718,471.46504 251.02435,471.46504c53.62071,0 137.0307,-45.6769 182.7076,-106.44703zm1178.86119,-15.09324c235.53392,-227.98731 106.44703,-638.68221 -197.80083,-638.68221c-137.0307,0 -289.15463,212.89407 -289.15463,410.6949c0,121.54027 197.80083,349.92477 304.24787,349.92477c38.13028,-0.39719 121.93746,-53.62071 182.7076,-121.93746zm1171.31457,30.18647c137.0307,-137.0307 113.99365,-585.45869 -30.58366,-646.62602c-182.7076,-68.31675 -372.56462,76.26056 -395.60167,311.79449c-45.27971,342.37815 220.83788,540.17898 426.18533,334.83153zm1186.40781,-7.54662c273.6642,-205.34745 30.18647,-760.61967 -289.15463,-638.68221c-152.12393,60.77014 -174.76379,631.13559 -22.63985,684.35911c144.57732,60.77014 167.21717,60.77014 311.79449,-45.6769zm1140.73091,53.22352c167.21717,-68.31675 167.21717,-623.58897 0,-692.30292c-319.3411,-121.54027 -562.81884,433.73195 -289.15463,638.68221c159.67055,114.39084 137.0307,114.39084 289.15463,53.62071zm1254.72456,-60.77014c53.22352,-60.77014 83.80718,-227.98731 68.31675,-365.018c-22.63985,-220.44069 -45.6769,-251.02435 -251.02435,-251.02435c-205.34745,0 -228.3845,30.58366 -251.02435,251.02435c-22.63985,266.11759 83.80718,471.46504 251.02435,471.46504c53.62071,0 137.0307,-45.6769 182.7076,-106.44703zm1186.40781,-15.09324c258.57097,-266.11759 -22.63985,-783.25952 -319.3411,-593.00531c-182.31041,113.99365 -212.89407,441.27857 -60.77014,593.00531c68.31675,68.31675 152.12393,121.54027 190.25421,121.54027s121.54027,-53.22352 189.85702,-121.54027zm1171.31457,15.09324c53.22352,-60.77014 83.80718,-227.98731 68.31675,-365.018c-22.63985,-220.44069 -45.6769,-251.02435 -251.02435,-251.02435c-205.34745,0 -227.98731,30.58366 -251.02435,251.02435c-22.63985,266.11759 83.80718,471.46504 251.02435,471.46504c53.62071,0 137.0307,-45.6769 182.7076,-106.44703zm1178.86119,7.54662c273.6642,-205.34745 30.58366,-760.61967 -289.15463,-638.68221c-152.12393,60.77014 -174.76379,631.13559 -22.63985,684.35911c144.57732,60.77014 167.21717,60.77014 311.79449,-45.6769zm1140.73091,53.22352c167.21717,-68.31675 167.21717,-623.58897 0,-692.30292c-319.3411,-121.54027 -562.81884,433.73195 -289.15463,638.68221c160.06774,114.39084 137.0307,114.39084 289.15463,53.62071zm1193.95443,-30.58366c296.70125,-167.21717 121.93746,-737.58262 -212.89407,-669.26587c-167.21717,30.58366 -227.98731,471.46504 -91.3538,638.68221c106.44703,129.48408 114.39084,129.48408 304.24787,30.58366z" id="svg_3"/>
    </g>
   </g>
  </g>
 </g>
</svg>